<?xml version="1.0" encoding="utf-8"?>
<!-- Generator: Adobe Illustrator 25.4.1, SVG Export Plug-In . SVG Version: 6.00 Build 0)  -->
<svg version="1.0" id="katman_1" xmlns="http://www.w3.org/2000/svg" xmlns:xlink="http://www.w3.org/1999/xlink" x="0px" y="0px"
	 viewBox="0 0 800 600" style="enable-background:new 0 0 800 600;" xml:space="preserve">
<style type="text/css">
	.st0{fill:#0165A4;}
	.st1{fill-rule:evenodd;clip-rule:evenodd;fill:#0165A4;}
</style>
<path class="st0" d="M694,278.1v48.7h-22.3c0,0,0-34.6,0-37.2c0-3.3-5.2-6.7-11.5-2.6c0,0-3.7,3-3.7,9.7v29.8h-22.3V270h22.7v6.7
	c0,0,17.1-8.9,25.7-7.1C682.8,269.2,691.8,270.3,694,278.1L694,278.1z"/>
<path class="st0" d="M617.4,278.1v48.7h-22.3c0,0,0-35.3,0-37.2c0-3.3-5.2-6.7-11.5-2.6c0,0-3.7,3-3.7,9.7v29.8h-22.3v-56.9h22.7
	v6.7c0,0,17.1-8.9,25.7-7.1C605.9,269.2,615.2,270.3,617.4,278.1L617.4,278.1z"/>
<path class="st0" d="M374.5,326.9v-57.3h22.7v7.8c0,0,14.5-8.9,23.1-7.4c0,0,7.1,0.4,11.2,7.4c0,0,13.8-10,24.5-7.1
	c0,0,9.3,2.6,9.7,9.7v46.9h-22.7v-35.7c0,0-0.7-6-6.7-4.1c0,0-4.5,0.7-4.8,6.3v33.5h-22.7v-35c0,0-2.6-7.1-8.6-3c0,0-3,1.9-3,7.8
	v30.1H374.5L374.5,326.9z"/>
<path class="st0" d="M185.6,326.9h19.7c12.3-0.4,11.5-10.8,11.5-10.8v-46.9h-23.4V312c0,4.5-4.1,5.2-6,5.6c-0.7,0-1.1,0-1.1,0
	s-0.4,0-1.1,0c-1.9,0-6-0.7-6-5.6v-42.8h-23.4v46.5c0,0-0.7,10.4,11.5,10.8h19.7h-1.5C185.6,326.5,185.6,326.9,185.6,326.9z"/>
<path class="st0" d="M337.7,289.3h21.9v-14.1c0,0-1.1-6-9.3-6c-8.2,0-34.2,0-34.2,0s-10.8-1.1-12.3,6.7v21.9c0,0,0.4,6.3,12.3,6.7
	H331c0,0,6.3,0,6.7,4.1c0,0,1.1,5.2-1.1,7.4c-1.1,1.1-1.9,1.9-4.5,1.9c-1.9,0-3.3-0.7-4.1-1.9c-1.1-1.9-1.1-3-1.1-6.7h-23.1v10
	c0,0-0.7,7.4,7.4,7.4h39.8c0,0,7.4,0.7,9.3-8.6v-15.6c0,0-0.7-7.8-6.7-7.8c0,0-19.7-0.4-20.1-0.7c-1.1,0-6.7,0.7-6.3-4.1v-6
	c0-3.3,3-5.2,5.6-5.2c3.3,0,5.2,1.9,5.6,5.2L337.7,289.3L337.7,289.3z"/>
<path class="st0" d="M267,289.3H289v-14.1c0,0-1.1-6-9.3-6s-34.2,0-34.2,0s-10.8-1.1-12.3,6.7v21.9c0,0,0.4,6.3,12.3,6.7h14.9
	c0,0,6.3,0,6.7,4.1c0,0,1.1,5.2-1.1,7.4c-1.1,1.1-1.9,1.9-4.5,1.9c-1.9,0-3.3-0.7-4.1-1.9c-1.1-1.9-1.1-3-1.1-6.7h-23.1v10
	c0,0-0.7,7.4,7.4,7.4h39.8c0,0,7.4,0.7,9.3-8.6v-15.6c0,0-0.7-7.8-6.7-7.8c0,0-19.7-0.4-20.1-0.7c-1.1,0-6.7,0.7-6.3-4.1v-6
	c0-3.3,3-5.2,5.6-5.2c3.3,0,5.2,1.9,5.6,5.2L267,289.3L267,289.3z"/>
<path class="st0" d="M109,303.1h4.5c0,0,2.6,0,2.6,3s0,20.8,0,20.8h23.8v-57.6H116v20.5c0,0,0,2.6-2.6,3c-0.4,0-4.5,0-4.5,0
	s-3.7,0-4.5,0c-2.6,0-2.6-2.6-2.6-2.6v-20.8H78.5v57.3h23.4c0,0,0-18.2,0-20.8c0-3,2.6-3,2.6-3L109,303.1L109,303.1z"/>
<path class="st1" d="M710.4,284.5c5.2,0,9.7-4.1,9.7-9.3c0-5.6-4.5-9.3-9.7-9.3c-5.2,0-9.7,4.1-9.7,9.3
	C701.1,280.4,705.2,284.5,710.4,284.5L710.4,284.5z M702.9,274.8c0-4.5,3.3-7.8,7.8-7.8c4.1,0,7.8,3.3,7.8,7.8s-3.3,7.8-7.8,7.8
	S702.9,279.3,702.9,274.8L702.9,274.8z M708.5,275.5h1.9l3,4.8h1.9l-3-4.8c1.5-0.4,3-1.1,3-3c0-2.2-1.1-3-3.7-3h-4.1v10.8h1.5
	L708.5,275.5L708.5,275.5z M708.5,274.1v-3.3h2.2c1.1,0,2.2,0.4,2.2,1.5c0,1.9-1.1,1.9-2.6,1.9H708.5L708.5,274.1z"/>
<path class="st1" d="M519.2,297.1v-17.5c-0.4-0.7-0.7-2.6-4.1-2.6h-3h-3c-1.9,0-4.1,0-4.1,3v16c0,4.5,2.6,4.1,2.6,4.1h4.1h4.5
	C516.6,300.5,519.2,300.5,519.2,297.1L519.2,297.1z M528.5,269.2c15.2-0.7,14.1,10.4,14.1,10.4v0.7v46.5h-23.4v-12.3
	c0-1.1-0.7-2.6-3-2.6h-4.1c0,0-3.7,0-4.1,0c-1.1,0-3,1.1-3,2.6v12.6h-23.4v-46.9c0,0-1.1-11.2,13.8-10.4h2.2h14.1h16.7
	C528.5,270,528.5,269.2,528.5,269.2z"/>
</svg>
